<svg width="1440" height="1006" viewBox="0 0 1440 1006" fill="none" xmlns="http://www.w3.org/2000/svg">
<g clip-path="url(#clip0_170_176)">
<rect width="1440" height="1006" fill="white"/>
<path fill-rule="evenodd" clip-rule="evenodd" d="M1400.75 -150.381C1449.09 -114.141 1457.17 -50.579 1476.47 6.67059C1496.59 66.3319 1539.81 127.228 1513.69 184.517C1487.03 242.985 1411.44 250.309 1353.1 277.248C1278.77 311.572 1210.41 384.521 1132.07 360.736C1048.25 335.29 997.522 247.218 975.186 162.517C953.729 81.152 971.173 -5.97291 1016.7 -76.7398C1058.65 -141.946 1129.78 -181.546 1205.93 -196.148C1274.03 -209.207 1345.26 -191.977 1400.75 -150.381Z" fill="#FCB82E" fill-opacity="0.7"/>
<path fill-rule="evenodd" clip-rule="evenodd" d="M367.731 795.26C405.068 886.166 343.967 983.707 286.562 1063.47C239.212 1129.27 168.88 1171.01 88.7071 1182.97C11.462 1194.49 -64.6201 1172.93 -126.33 1125.06C-194.115 1072.48 -260.2 1002.32 -254.524 916.716C-248.913 832.108 -170.148 778.498 -100.172 730.609C-33.0247 684.656 40.1909 648.729 120.791 659.865C218.626 673.383 330.208 703.901 367.731 795.26Z" fill="#07B0C8" fill-opacity="0.5"/>
<path fill-rule="evenodd" clip-rule="evenodd" d="M1521.13 277.467C1537.66 328.722 1581.14 377.88 1558.37 426.455C1532.18 482.339 1469.66 524.845 1408.68 517.346C1352.03 510.38 1332.02 442.526 1300.11 394.698C1274.82 356.8 1238.98 320.525 1247.5 275.801C1256.07 230.852 1300.14 206.508 1340.08 184.877C1381.46 162.469 1428.73 133.379 1470.78 154.882C1511.94 175.932 1506.86 233.229 1521.13 277.467Z" fill="#07B0C8" fill-opacity="0.5"/>
<path fill-rule="evenodd" clip-rule="evenodd" d="M-77.2272 578.941C-46.261 545.656 -2.08648 517.973 43.3694 532.12C91.2295 547.015 129.346 595.505 138.601 646.112C146.577 689.727 113.553 724.016 83.6321 752.277C63.9361 770.88 34.4666 763.733 7.82859 769.626C-28.9159 777.757 -66.6256 818.966 -97.0974 792.265C-127.363 765.745 -97.9467 719.054 -94.3201 680.12C-90.9599 644.045 -100.708 604.181 -77.2272 578.941Z" fill="#FCB82E" fill-opacity="0.7"/>
</g>
<defs>
<clipPath id="clip0_170_176">
<rect width="1440" height="1006" fill="white"/>
</clipPath>
</defs>
</svg>
