<svg width="393" height="852" viewBox="0 0 393 852" fill="none" xmlns="http://www.w3.org/2000/svg">
<g clip-path="url(#clip0_170_209)">
<rect width="393" height="852" fill="white"/>
<path fill-rule="evenodd" clip-rule="evenodd" d="M243.485 814.952C269.32 877.854 227.041 945.346 187.32 1000.54C154.557 1046.06 105.892 1074.95 50.4167 1083.22C-3.03224 1091.19 -55.6764 1076.28 -98.3758 1043.15C-145.279 1006.77 -191.006 958.223 -187.078 898.993C-183.196 840.449 -128.695 803.354 -80.2764 770.218C-33.8144 738.421 16.8464 713.562 72.6171 721.268C140.313 730.621 217.521 751.738 243.485 814.952Z" fill="#07B0C8" fill-opacity="0.5"/>
<path fill-rule="evenodd" clip-rule="evenodd" d="M-64.4 665.273C-42.9733 642.242 -12.4072 623.087 19.0455 632.875C52.1618 643.182 78.536 676.734 84.9399 711.751C90.459 741.93 67.6086 765.656 46.9048 785.211C33.2764 798.083 12.8853 793.137 -5.54659 797.216C-30.9716 802.841 -57.0644 831.356 -78.149 812.88C-99.0911 794.53 -78.7367 762.223 -76.2273 735.282C-73.9022 710.321 -80.6474 682.737 -64.4 665.273Z" fill="#FCB82E" fill-opacity="0.7"/>
<path fill-rule="evenodd" clip-rule="evenodd" d="M424.963 -193.449C459.672 -167.429 465.47 -121.794 479.331 -80.6898C493.777 -37.8544 524.806 5.86788 506.052 46.9997C486.912 88.9781 432.64 94.2368 390.754 113.578C337.384 138.222 288.305 190.598 232.055 173.521C171.875 155.251 135.456 92.0178 119.419 31.2042C104.014 -27.2138 116.538 -89.7675 149.225 -140.576C179.344 -187.393 230.414 -215.825 285.086 -226.308C333.985 -235.685 385.125 -223.314 424.963 -193.449Z" fill="#FCB82E" fill-opacity="0.7"/>
<path fill-rule="evenodd" clip-rule="evenodd" d="M511.392 113.735C523.262 150.536 554.482 185.83 538.133 220.705C519.324 260.829 474.443 291.347 430.657 285.963C389.982 280.962 375.621 232.244 352.707 197.904C334.552 170.695 308.82 144.65 314.937 112.539C321.085 80.2671 352.728 62.7889 381.405 47.2584C411.112 31.1702 445.056 10.2841 475.244 25.7226C504.796 40.8359 501.148 81.9736 511.392 113.735Z" fill="#07B0C8" fill-opacity="0.5"/>
</g>
<defs>
<clipPath id="clip0_170_209">
<rect width="393" height="852" fill="white"/>
</clipPath>
</defs>
</svg>
