<svg width="22" height="19" viewBox="0 0 22 19" fill="none" xmlns="http://www.w3.org/2000/svg">
<path d="M11 0C10.5877 -5.91595e-09 10.1794 0.0781973 9.79848 0.230127C9.41755 0.382058 9.07144 0.604745 8.77989 0.885475C8.48834 1.16621 8.25707 1.49948 8.09928 1.86627C7.9415 2.23306 7.86029 2.62619 7.86029 3.0232C7.86029 3.42021 7.9415 3.81334 8.09928 4.18013C8.25707 4.54692 8.48834 4.8802 8.77989 5.16093C9.07144 5.44166 9.41755 5.66435 9.79848 5.81628C10.1794 5.96821 10.5877 6.0464 11 6.0464C11.8327 6.0464 12.6313 5.72789 13.2201 5.16093C13.8089 4.59397 14.1397 3.825 14.1397 3.0232C14.1397 2.2214 13.8089 1.45244 13.2201 0.885475C12.6313 0.318515 11.8327 0 11 0ZM18.0714 1.51009C17.4463 1.51009 16.8467 1.74921 16.4047 2.17486C15.9626 2.6005 15.7143 3.1778 15.7143 3.77976C15.7143 4.38171 15.9626 4.95901 16.4047 5.38466C16.8467 5.8103 17.4463 6.04943 18.0714 6.04943C18.6966 6.04943 19.2961 5.8103 19.7382 5.38466C20.1802 4.95901 20.4286 4.38171 20.4286 3.77976C20.4286 3.1778 20.1802 2.6005 19.7382 2.17486C19.2961 1.74921 18.6966 1.51009 18.0714 1.51009ZM3.92857 1.51009C3.30342 1.51009 2.70387 1.74921 2.26182 2.17486C1.81977 2.6005 1.57143 3.1778 1.57143 3.77976C1.57143 4.38171 1.81977 4.95901 2.26182 5.38466C2.70387 5.8103 3.30342 6.04943 3.92857 6.04943C4.55372 6.04943 5.15327 5.8103 5.59532 5.38466C6.03737 4.95901 6.28571 4.38171 6.28571 3.77976C6.28571 3.1778 6.03737 2.6005 5.59532 2.17486C5.15327 1.74921 4.55372 1.51009 3.92857 1.51009ZM6.28571 9.06507C6.28862 8.6656 6.45546 8.28345 6.74985 8.00197C7.04423 7.7205 7.44227 7.56253 7.85714 7.56254H14.1429C14.5596 7.56254 14.9593 7.72196 15.254 8.00572C15.5487 8.28949 15.7143 8.67436 15.7143 9.07566V13.615C15.7142 14.0912 15.6368 14.5645 15.4849 15.0177C15.1369 16.0446 14.4201 16.9185 13.4632 17.4824C12.5064 18.0462 11.372 18.2632 10.264 18.0942C9.15593 17.9253 8.14673 17.3815 7.41759 16.5605C6.68844 15.7396 6.28713 14.6952 6.28571 13.615V9.06507ZM4.71429 9.07566C4.71429 8.52337 4.86671 8.0074 5.13543 7.56254H1.57143C1.15466 7.56254 0.754961 7.72196 0.460261 8.00572C0.165561 8.28949 2.17506e-07 8.67436 2.17506e-07 9.07566V12.8584C-0.000213789 13.4778 0.157498 14.0877 0.459286 14.6346C0.761074 15.1815 1.19771 15.6487 1.73084 15.9952C2.26397 16.3417 2.87729 16.5568 3.51695 16.6217C4.1566 16.6866 4.80302 16.5992 5.39943 16.3674C4.94714 15.5148 4.71228 14.5708 4.71429 13.6135V9.07566ZM17.2857 9.07566V13.615C17.2857 14.6061 17.039 15.5412 16.6006 16.3674C17.197 16.5992 17.8434 16.6866 18.4831 16.6217C19.1227 16.5568 19.736 16.3417 20.2692 15.9952C20.8023 15.6487 21.2389 15.1815 21.5407 14.6346C21.8425 14.0877 22.0002 13.4778 22 12.8584V9.07566C22 8.67436 21.8344 8.28949 21.5397 8.00572C21.245 7.72196 20.8453 7.56254 20.4286 7.56254H16.8646C17.1317 8.0074 17.2857 8.52337 17.2857 9.07566Z" fill="#07B0C8"/>
</svg>
