<svg width="22" height="23" viewBox="0 0 22 23" fill="none" xmlns="http://www.w3.org/2000/svg">
<path d="M13.0638 22.3582H8.9369C8.67833 22.3582 8.4275 22.2732 8.22603 22.1171C8.02456 21.961 7.88455 21.7433 7.82922 21.5001L7.36777 19.4434C6.75221 19.1837 6.16852 18.8589 5.62745 18.4751L3.54473 19.1137C3.29821 19.1894 3.03221 19.1816 2.79091 19.0916C2.54962 19.0017 2.34754 18.835 2.21823 18.6192L0.150247 15.1792C0.022297 14.9632 -0.0257324 14.7118 0.0140172 14.4661C0.0537667 14.2204 0.178942 13.9949 0.369063 13.8266L1.98467 12.4074C1.9112 11.7646 1.9112 11.1159 1.98467 10.473L0.369063 9.05705C0.178672 8.88868 0.0533272 8.66303 0.0135712 8.41709C-0.0261849 8.17114 0.0220067 7.91948 0.150247 7.70336L2.21369 4.26126C2.343 4.04545 2.54508 3.87873 2.78638 3.78877C3.02768 3.69881 3.29367 3.69103 3.5402 3.76673L5.62292 4.40537C5.89955 4.20886 6.18753 4.02546 6.48457 3.85952C6.77142 3.7045 7.06619 3.56368 7.36777 3.43813L7.83035 1.38357C7.88542 1.14034 8.02517 0.92254 8.22643 0.766276C8.42768 0.610013 8.67836 0.524676 8.9369 0.524414H13.0638C13.3223 0.524676 13.573 0.610013 13.7743 0.766276C13.9755 0.92254 14.1153 1.14034 14.1703 1.38357L14.6375 3.43922C15.2522 3.70043 15.8358 4.02511 16.3778 4.40755L18.4616 3.76891C18.708 3.69349 18.9737 3.70141 19.2148 3.79136C19.4558 3.8813 19.6577 4.04787 19.787 4.26345L21.8504 7.70554C22.1135 8.14986 22.0228 8.71208 21.6316 9.05814L20.016 10.4773C20.0895 11.1202 20.0895 11.7689 20.016 12.4118L21.6316 13.831C22.0228 14.1782 22.1135 14.7393 21.8504 15.1836L19.787 18.6257C19.6577 18.8415 19.4556 19.0082 19.2143 19.0982C18.973 19.1882 18.707 19.1959 18.4605 19.1202L16.3778 18.4816C15.8371 18.8652 15.2538 19.1896 14.6386 19.4488L14.1703 21.5001C14.1151 21.7431 13.9752 21.9607 13.774 22.1167C13.5727 22.2728 13.3222 22.358 13.0638 22.3582V22.3582ZM10.9958 7.07455C9.79304 7.07455 8.63954 7.53461 7.78905 8.35354C6.93856 9.17246 6.46076 10.2832 6.46076 11.4413C6.46076 12.5994 6.93856 13.7101 7.78905 14.5291C8.63954 15.348 9.79304 15.8081 10.9958 15.8081C12.1986 15.8081 13.3521 15.348 14.2026 14.5291C15.0531 13.7101 15.5309 12.5994 15.5309 11.4413C15.5309 10.2832 15.0531 9.17246 14.2026 8.35354C13.3521 7.53461 12.1986 7.07455 10.9958 7.07455V7.07455Z" fill="#07B0C8"/>
</svg>
