<svg width="22" height="23" viewBox="0 0 22 23" fill="none" xmlns="http://www.w3.org/2000/svg">
<path d="M13.0638 22.3579H8.9369C8.67833 22.358 8.4275 22.2729 8.22603 22.1168C8.02456 21.9608 7.88455 21.7431 7.82922 21.4999L7.36777 19.4431C6.75221 19.1834 6.16852 18.8587 5.62745 18.4748L3.54473 19.1134C3.29821 19.1891 3.03221 19.1814 2.79091 19.0914C2.54962 19.0014 2.34754 18.8347 2.21823 18.6189L0.150247 15.179C0.022297 14.963 -0.0257324 14.7116 0.0140172 14.4659C0.0537667 14.2201 0.178942 13.9947 0.369063 13.8264L1.98467 12.4072C1.9112 11.7643 1.9112 11.1156 1.98467 10.4727L0.369063 9.05681C0.178672 8.88844 0.0533272 8.66279 0.0135712 8.41684C-0.0261849 8.17089 0.0220067 7.91924 0.150247 7.70311L2.21369 4.26102C2.343 4.04521 2.54508 3.87848 2.78638 3.78852C3.02768 3.69857 3.29367 3.69079 3.54019 3.76648L5.62292 4.40512C5.89955 4.20862 6.18753 4.02522 6.48457 3.85928C6.77142 3.70426 7.06619 3.56343 7.36777 3.43789L7.83035 1.38333C7.88542 1.1401 8.02517 0.922295 8.22643 0.766032C8.42768 0.609769 8.67836 0.524432 8.9369 0.52417H13.0638C13.3223 0.524432 13.573 0.609769 13.7743 0.766032C13.9755 0.922295 14.1153 1.1401 14.1703 1.38333L14.6375 3.43898C15.2522 3.70018 15.8358 4.02486 16.3778 4.40731L18.4616 3.76867C18.708 3.69325 18.9737 3.70117 19.2148 3.79111C19.4558 3.88106 19.6577 4.04763 19.787 4.2632L21.8504 7.7053C22.1135 8.14962 22.0228 8.71183 21.6316 9.0579L20.016 10.4771C20.0895 11.12 20.0895 11.7687 20.016 12.4116L21.6316 13.8308C22.0228 14.1779 22.1135 14.739 21.8504 15.1834L19.787 18.6255C19.6577 18.8413 19.4556 19.008 19.2143 19.098C18.973 19.1879 18.707 19.1957 18.4605 19.12L16.3778 18.4814C15.8371 18.8649 15.2538 19.1893 14.6386 19.4486L14.1703 21.4999C14.1151 21.7429 13.9752 21.9605 13.774 22.1165C13.5727 22.2726 13.3222 22.3577 13.0638 22.3579ZM10.9958 7.0743C9.79304 7.0743 8.63954 7.53437 7.78905 8.35329C6.93856 9.17222 6.46076 10.2829 6.46076 11.4411C6.46076 12.5992 6.93856 13.7099 7.78905 14.5288C8.63954 15.3477 9.79304 15.8078 10.9958 15.8078C12.1986 15.8078 13.3521 15.3477 14.2026 14.5288C15.0531 13.7099 15.5309 12.5992 15.5309 11.4411C15.5309 10.2829 15.0531 9.17222 14.2026 8.35329C13.3521 7.53437 12.1986 7.0743 10.9958 7.0743Z" fill="white"/>
</svg>
