<svg width="22" height="24" viewBox="0 0 22 24" fill="none" xmlns="http://www.w3.org/2000/svg">
<path d="M16.797 1.9995e-08C17.4934 -8.23642e-05 18.1639 0.254421 18.673 0.712074C19.1821 1.16973 19.4918 1.7964 19.5394 2.46545L19.5455 2.64542V14.5586C19.399 14.6527 19.2585 14.7633 19.129 14.888L14.9646 18.8967L13.8553 17.8263C13.3676 17.3554 12.7131 17.0794 12.023 17.0535H14.9646C15.2076 17.0535 15.4406 16.9605 15.6124 16.7951C15.7842 16.6296 15.8808 16.4053 15.8808 16.1713C15.8808 15.9373 15.7842 15.7129 15.6124 15.5475C15.4406 15.382 15.2076 15.2891 14.9646 15.2891H8.85169C8.6087 15.2891 8.37566 15.382 8.20384 15.5475C8.03202 15.7129 7.93549 15.9373 7.93549 16.1713C7.93549 16.4053 8.03202 16.6296 8.20384 16.7951C8.37566 16.9605 8.6087 17.0535 8.85169 17.0535H11.7994C11.266 17.0745 10.7505 17.2447 10.3158 17.5432C9.88117 17.8417 9.54622 18.2557 9.35188 18.7345C9.15755 19.2133 9.11223 19.7362 9.22146 20.2394C9.3307 20.7426 9.58976 21.2042 9.96701 21.568L11.9924 23.5241H2.74859C2.05213 23.5242 1.3816 23.2697 0.872521 22.812C0.363443 22.3544 0.0537773 21.7277 0.00610814 21.0587L2.07656e-08 20.8775V2.64659C-8.55385e-05 1.97597 0.264226 1.33033 0.739517 0.840142C1.21481 0.349955 1.86564 0.0517816 2.56047 0.00588148L2.74859 1.9995e-08H16.797ZM6.10798 6.76352C6.10798 6.45155 5.97928 6.15237 5.75019 5.93177C5.52109 5.71118 5.21037 5.58725 4.88639 5.58725C4.5624 5.58725 4.25168 5.71118 4.02259 5.93177C3.79349 6.15237 3.66479 6.45155 3.66479 6.76352C3.66479 7.07548 3.79349 7.37467 4.02259 7.59526C4.25168 7.81586 4.5624 7.93978 4.88639 7.93978C5.21037 7.93978 5.52109 7.81586 5.75019 7.59526C5.97928 7.37467 6.10798 7.07548 6.10798 6.76352ZM8.85169 5.88014C8.6087 5.88014 8.37566 5.97309 8.20384 6.13853C8.03202 6.30398 7.93549 6.52837 7.93549 6.76234C7.93549 6.99632 8.03202 7.22071 8.20384 7.38615C8.37566 7.55159 8.6087 7.64454 8.85169 7.64454H14.9646C15.2076 7.64454 15.4406 7.55159 15.6124 7.38615C15.7842 7.22071 15.8808 6.99632 15.8808 6.76234C15.8808 6.52837 15.7842 6.30398 15.6124 6.13853C15.4406 5.97309 15.2076 5.88014 14.9646 5.88014H8.85169ZM7.93549 11.4674C7.93549 11.9544 8.34595 12.3496 8.85169 12.3496H14.9646C15.0849 12.3496 15.204 12.3268 15.3152 12.2824C15.4263 12.2381 15.5273 12.1731 15.6124 12.0912C15.6975 12.0093 15.765 11.912 15.811 11.805C15.8571 11.698 15.8808 11.5833 15.8808 11.4674C15.8808 11.3515 15.8571 11.2368 15.811 11.1298C15.765 11.0228 15.6975 10.9255 15.6124 10.8436C15.5273 10.7617 15.4263 10.6967 15.3152 10.6524C15.204 10.608 15.0849 10.5852 14.9646 10.5852H8.85169C8.6087 10.5852 8.37566 10.6781 8.20384 10.8436C8.03202 11.009 7.93549 11.2334 7.93549 11.4674ZM6.10798 11.4674C6.10798 11.1554 5.97928 10.8562 5.75019 10.6357C5.52109 10.4151 5.21037 10.2911 4.88639 10.2911C4.5624 10.2911 4.25168 10.4151 4.02259 10.6357C3.79349 10.8562 3.66479 11.1554 3.66479 11.4674C3.66479 11.7794 3.79349 12.0786 4.02259 12.2991C4.25168 12.5197 4.5624 12.6437 4.88639 12.6437C5.21037 12.6437 5.52109 12.5197 5.75019 12.2991C5.97928 12.0786 6.10798 11.7794 6.10798 11.4674ZM6.10798 16.1701C6.10798 15.8581 5.97928 15.559 5.75019 15.3384C5.52109 15.1178 5.21037 14.9938 4.88639 14.9938C4.5624 14.9938 4.25168 15.1178 4.02259 15.3384C3.79349 15.559 3.66479 15.8581 3.66479 16.1701C3.66479 16.4821 3.79349 16.7813 4.02259 17.0018C4.25168 17.2224 4.5624 17.3464 4.88639 17.3464C5.21037 17.3464 5.52109 17.2224 5.75019 17.0018C5.97928 16.7813 6.10798 16.4821 6.10798 16.1701ZM14.9646 21.3939L20.4251 16.136C20.5097 16.0518 20.6108 15.9846 20.7226 15.9384C20.8344 15.8922 20.9546 15.868 21.0763 15.867C21.1979 15.866 21.3186 15.8884 21.4311 15.9328C21.5437 15.9772 21.646 16.0428 21.732 16.1257C21.8179 16.2085 21.8859 16.3071 21.9319 16.4155C21.978 16.5239 22.0011 16.6401 22 16.7572C21.9988 16.8744 21.9735 16.9901 21.9254 17.0977C21.8774 17.2054 21.8075 17.3027 21.72 17.384L15.612 23.2653C15.4402 23.4305 15.2074 23.5233 14.9646 23.5233C14.7218 23.5233 14.4889 23.4305 14.3171 23.2653L11.2631 20.3235C11.1013 20.1563 11.0132 19.9351 11.0174 19.7065C11.0216 19.478 11.1177 19.2599 11.2856 19.0983C11.4534 18.9366 11.6799 18.844 11.9173 18.84C12.1546 18.836 12.3843 18.9208 12.558 19.0767L14.9646 21.3939Z" fill="white"/>
</svg>
