<svg width="24" height="24" viewBox="0 0 24 24" fill="none" xmlns="http://www.w3.org/2000/svg">
<path d="M9.4 2H3.6C3.26863 2 3 2.26863 3 2.6V6.4C3 6.73137 3.26863 7 3.6 7H9.4C9.73137 7 10 6.73137 10 6.4V2.6C10 2.26863 9.73137 2 9.4 2Z" fill="#07B0C8" stroke="#07B0C8" stroke-width="1.5"/>
<path d="M14.9 17H9.1C8.76863 17 8.5 17.2686 8.5 17.6V21.4C8.5 21.7314 8.76863 22 9.1 22H14.9C15.2314 22 15.5 21.7314 15.5 21.4V17.6C15.5 17.2686 15.2314 17 14.9 17Z" fill="#07B0C8" stroke="#07B0C8" stroke-width="1.5"/>
<path d="M20.4 2H14.6C14.2686 2 14 2.26863 14 2.6V6.4C14 6.73137 14.2686 7 14.6 7H20.4C20.7314 7 21 6.73137 21 6.4V2.6C21 2.26863 20.7314 2 20.4 2Z" fill="#07B0C8" stroke="#07B0C8" stroke-width="1.5"/>
<path d="M6.5 7V10.5C6.5 11.0304 6.71071 11.5391 7.08579 11.9142C7.46086 12.2893 7.96957 12.5 8.5 12.5H15.5C16.0304 12.5 16.5391 12.2893 16.9142 11.9142C17.2893 11.5391 17.5 11.0304 17.5 10.5V7M12 12.5V17" stroke="#07B0C8" stroke-width="1.5"/>
</svg>
