<svg width="22" height="20" viewBox="0 0 22 20" fill="none" xmlns="http://www.w3.org/2000/svg">
<path d="M21.5447 9.83688L11.5489 0.219046C11.4769 0.149609 11.3914 0.0945205 11.2973 0.0569337C11.2032 0.019347 11.1023 0 11.0005 0C10.8986 0 10.7977 0.019347 10.7036 0.0569337C10.6095 0.0945205 10.524 0.149609 10.452 0.219046L0.456229 9.83688C0.165019 10.1173 0 10.4982 0 10.8954C0 11.7203 0.696477 12.3909 1.55312 12.3909H2.60633V19.2538C2.60633 19.6674 2.95335 20.0015 3.38289 20.0015H9.44734V14.7673H12.1653V20.0015H18.618C19.0476 20.0015 19.3946 19.6674 19.3946 19.2538V12.3909H20.4478C20.8603 12.3909 21.2559 12.2343 21.5471 11.9516C22.1514 11.3674 22.1514 10.4211 21.5447 9.83688Z" fill="white"/>
</svg>
